<?xml version="1.0" encoding="utf-8"?>
<!-- Generator: Adobe Illustrator 25.0.0, SVG Export Plug-In . SVG Version: 6.00 Build 0)  -->
<svg version="1.1" id="Layer_1" xmlns="http://www.w3.org/2000/svg" xmlns:xlink="http://www.w3.org/1999/xlink" x="0px" y="0px"
	 viewBox="0 0 245 90" style="enable-background:new 0 0 245 90;" xml:space="preserve">
<style type="text/css">
	.st0{fill:#B5B7B8;}
	.st1{fill:#C8102E;}
	.st2{fill:#FFFFFF;}
	.st3{fill:#262425;}
</style>
<polygon class="st0" points="56.7,11 32.5,3 8.2,11 8.3,79.6 32.5,87.6 56.8,79.6 "/>
<path class="st1" d="M10,78.3l22.5,7.4L55,78.3v-23c-14.4,5.4-29.6,8.6-45,9.4V78.3z"/>
<path d="M32.5,4.8L10,12.2v50.4c1.9-0.2,3.8-0.4,5.8-0.7l2-0.3V32.8h4.5l-0.8,0.9v27.2l1.3-0.2V32.8h20.5l-0.8,0.9v21.6l1.3-0.5
	V32.8h3.4v20.7c2.8-1.1,5.4-2.3,7.8-3.6V12.2L32.5,4.8z"/>
<path class="st2" d="M16.6,31.4L16.6,31.4l31.8,0l0.1,0l-1.2-1.6v-6.9l0.6-0.9l-0.8-1v-1.6l0.4-0.6l-0.9-1.3h-0.2
	c0.3-0.7,0.4-1.4,0.4-2.1v-0.1h-0.1h-0.3c0-0.1,0-0.2,0.1-0.3c0-0.4-0.2-0.8-0.5-0.8s-0.5,0.3-0.5,0.8c0,0.1,0,0.2,0.1,0.3h-0.3
	h-0.1v0.1c0,0.7,0.1,1.4,0.4,2.1h-0.2l-0.8,1.3l0.4,0.6V21l-0.8,1l0.5,0.7h-1v2.7h-0.9V28h-2.3v-1.9l0.7-0.8l0,0h-1v-0.2l0.5-0.5
	l-0.9-0.9c0.2-0.6,0.4-1.2,0.4-1.9v-0.1h-0.1c-0.4-0.1-0.8-0.1-1.2,0h-0.1v0.1c0,0.6,0.1,1.3,0.4,1.9L38,24.6l0.5,0.5v0.2h-1.2V28
	H35v-1.9l0.7-0.8l0,0h-1.6v-1.8l0.6-0.7h-1.1v-1.4l0.4-0.6L33,19.6h-0.2c0.2-0.6,0.3-1.2,0.3-1.8v-0.1h-0.1h-0.2c0-0.1,0-0.2,0-0.3
	c0-0.4-0.2-0.7-0.4-0.7S32,17,32,17.4c0,0.1,0,0.2,0,0.3h-0.2h-0.1v0.1c0,0.6,0.1,1.2,0.3,1.8h-0.2L31,20.8l0.4,0.6v1.4h-1.2v2.4h-1
	V28H27v-1.9l0.7-0.7v0h-1v-0.2l0.5-0.5l-0.9-0.9c0.3-0.6,0.4-1.2,0.4-1.9v-0.1h-0.1c-0.4-0.1-0.8-0.1-1.2,0h-0.1v0.1
	c0,0.6,0.1,1.3,0.4,1.9l-0.9,0.9l0.5,0.5v0.2H24V28h-2.3v-1.9l0.7-0.7l0,0h-1.7v-1.8l0.8-0.9h-1L21,22l-0.8-1v-1.6l0.4-0.6l-0.8-1.3
	h-0.2c0.3-0.7,0.4-1.4,0.4-2.1v-0.1h-0.1h-0.3c0-0.1,0-0.2,0-0.3c0-0.4-0.2-0.8-0.5-0.8s-0.5,0.3-0.5,0.8c0,0.1,0,0.2,0,0.3h-0.3
	h-0.1v0.1c0,0.7,0.1,1.4,0.4,2.1h-0.2l-0.8,1.3l0.4,0.6V21l-0.8,1l0.6,0.9v6.9L16.6,31.4z"/>
<path class="st2" d="M55,49.9c-2.4,1.3-5,2.5-7.8,3.6V32.8h-3.4v22.1l-1.3,0.5V33.7l0.8-0.9H22.8v27.9l-1.3,0.2V33.7l0.8-0.9h-4.5
	v28.8l-2,0.3c-1.9,0.3-3.8,0.5-5.8,0.7v0.9c15.5-1.4,30.6-5.1,45-11L55,49.9z"/>
<polygon class="st3" points="40.2,36.4 33.6,36.4 33.6,46 34.9,44.7 39,44.7 39,41.7 34.7,41.7 34.7,40.7 39,40.7 39,37.6 "/>
<polygon class="st3" points="32,36.4 25.4,36.4 25.4,46 26.7,44.7 30.8,44.7 30.8,41.7 26.5,41.7 26.5,40.7 30.8,40.7 30.8,37.6 "/>
<polygon class="st3" points="40.2,47.3 33.6,47.3 33.6,56.9 34.9,55.5 39,55.5 39,52.6 34.7,52.6 34.7,51.6 39,51.6 39,48.5 "/>
<polygon class="st3" points="32,47.3 25.4,47.3 25.4,56.9 26.7,55.5 30.8,55.5 30.8,52.6 26.5,52.6 26.5,51.6 30.8,51.6 30.8,48.5 
	"/>
<polygon class="st2" points="29.2,66.7 25.5,66.7 25.9,67.4 25.9,67.5 25.9,72.2 17.9,66.7 14.5,66.7 15,67.5 15,76.2 14.6,77 
	18.3,77 17.9,76.2 17.9,69.9 25.9,75.4 25.9,76.2 25.6,77 29.2,77 28.8,76.2 28.8,67.5 "/>
<polygon class="st2" points="35.4,66.7 31.7,66.7 32.1,67.4 32.1,67.5 32.1,76.2 31.8,77 35.4,77 35,76.2 35,67.5 "/>
<polygon class="st2" points="50.9,66.7 47.2,66.7 47.6,67.5 47.6,74.7 41.2,74.7 41.2,67.5 41.6,66.7 38,66.7 38.3,67.5 38.3,75.1 
	40.6,77 48.1,77 50.5,75.2 50.5,67.5 "/>
<path class="st2" d="M82.6,43.5l-8.2-11.1v8.1c-0.1,0.5,0,1.1,0.2,1.6c0.1,0.2,0.5,0.3,1.2,0.3H76v0.9h-4.6v-0.9h0.2
	c0.7,0,1.1-0.2,1.2-0.3c0.2-0.5,0.3-1.1,0.2-1.6v-9c0.1-0.5,0-1.1-0.2-1.6c-0.1-0.2-0.5-0.3-1.2-0.3h-0.2v-0.9H75l8.1,11.1v-8.2
	c0.1-0.5,0-1.1-0.2-1.6c-0.1-0.2-0.5-0.3-1.2-0.3h-0.2v-0.9h4.6v0.9H86c-0.7,0-1.1,0.2-1.2,0.3c-0.2,0.5-0.3,1.1-0.2,1.6v12
	L82.6,43.5z"/>
<path class="st2" d="M92.3,43.5c-1.5,0.1-3-0.5-4.2-1.5c-1.1-1.1-1.6-2.6-1.5-4.2c-0.1-1.5,0.5-3.1,1.5-4.2c2.4-2,5.9-2,8.3,0
	c1.1,1.1,1.6,2.6,1.5,4.2c0.3,2.9-1.9,5.4-4.7,5.7C92.9,43.5,92.6,43.5,92.3,43.5 M92.3,42.5c0.8,0,1.5-0.4,1.8-1.2
	c0.5-1.1,0.7-2.3,0.6-3.5c0.1-1.2-0.1-2.4-0.6-3.5c-0.5-1-1.7-1.4-2.7-1c-0.4,0.2-0.8,0.5-1,1c-0.5,1.1-0.7,2.3-0.6,3.5
	c-0.1,1.2,0.1,2.4,0.6,3.5C90.8,42.1,91.5,42.5,92.3,42.5"/>
<path class="st2" d="M103,35.5v4.9c-0.1,0.5,0,1.1,0.2,1.6c0.4,0.3,0.9,0.4,1.4,0.3h0.2v0.9h-6.4v-0.9h0.2c0.7,0,1.1-0.2,1.2-0.3
	c0.2-0.5,0.3-1.1,0.2-1.6v-5.1c0.1-0.5,0-1.1-0.2-1.6c-0.1-0.2-0.5-0.3-1.2-0.3h-0.2v-0.9h4.5v2c0.6-1.4,2-2.3,3.5-2.3
	c0.2,0,0.4,0,0.6,0.1v3.5h-1.4v-0.2c0-0.4-0.1-0.8-0.1-1.2c0-0.1-0.2-0.1-0.5-0.1C104.2,34.1,103.4,34.6,103,35.5"/>
<path class="st2" d="M115.3,43.2c-0.6,0.2-1.2,0.3-1.8,0.3c-1,0.1-2-0.2-2.8-0.9c-0.7-0.7-1-1.7-0.9-2.7v-6.5h-1.4v-1h1.4v-1.8
	l2.9-0.5v2.4h2.4v1h-2.4V40c-0.1,0.7,0,1.3,0.3,1.9c0.3,0.4,0.7,0.5,1.2,0.5c0.4,0,0.7-0.1,1.1-0.2L115.3,43.2z"/>
<path class="st2" d="M121.1,34.4c0.4-0.7,0.9-1.3,1.6-1.7c0.6-0.4,1.4-0.6,2.1-0.6c0.9,0,1.7,0.3,2.3,0.9c0.6,0.7,0.9,1.6,0.8,2.5
	v4.8c-0.1,0.5,0,1.1,0.2,1.6c0.1,0.2,0.5,0.3,1.2,0.3h0.2v0.9h-6.1v-0.9h0.2c0.7,0,1.1-0.2,1.2-0.3c0.2-0.5,0.3-1.1,0.2-1.6v-4.5
	c0-0.5,0-1.1-0.3-1.6c-0.2-0.3-0.6-0.4-1-0.4c-0.5,0-0.9,0.1-1.3,0.4c-0.5,0.3-0.9,0.7-1.3,1.2v4.9c-0.1,0.5,0,1.1,0.2,1.6
	c0.1,0.2,0.5,0.3,1.2,0.3h0.2v0.9h-6.1v-0.9h0.2c0.7,0,1.1-0.2,1.2-0.3c0.2-0.5,0.3-1.1,0.2-1.6v-9.9c0.1-0.5,0-1.1-0.2-1.6
	c-0.1-0.2-0.5-0.3-1.2-0.3h-0.2v-0.9h4.5L121.1,34.4z"/>
<path class="st2" d="M140,42.8c-1.2,0.4-2.5,0.7-3.8,0.7c-1.6,0.1-3.2-0.5-4.4-1.6c-1.1-1.1-1.7-2.7-1.6-4.3c-0.1-1.5,0.5-2.9,1.5-4
	c1-1,2.4-1.6,3.8-1.5c3,0,4.6,1.9,4.6,5.6v0.2h-6.8c-0.1,1.1,0.3,2.2,1,3.1c0.8,0.7,1.8,1.1,2.9,1c1,0,2.1-0.3,3-0.7L140,42.8z
	 M133.3,37h3.9v-0.3c0.1-0.9-0.1-1.9-0.4-2.8c-0.2-0.5-0.8-0.8-1.4-0.8c-0.7,0-1.3,0.4-1.6,1C133.4,35,133.2,36,133.3,37"/>
<path class="st2" d="M145.9,35.5v4.9c-0.1,0.5,0,1.1,0.2,1.6c0.4,0.3,0.9,0.4,1.4,0.3h0.2v0.9h-6.4v-0.9h0.2c0.7,0,1.1-0.2,1.2-0.3
	c0.2-0.5,0.3-1.1,0.2-1.6v-5.1c0.1-0.5,0-1.1-0.2-1.6c-0.1-0.2-0.5-0.3-1.2-0.3h-0.2v-0.9h4.5v2c0.6-1.4,2-2.3,3.5-2.3
	c0.2,0,0.4,0,0.6,0.1v3.5h-1.4v-0.2c0-0.4-0.1-0.8-0.1-1.2c0-0.1-0.2-0.1-0.5-0.1C147,34.1,146.2,34.6,145.9,35.5"/>
<path class="st2" d="M155.7,34.4c0.4-0.7,0.9-1.3,1.6-1.7c0.6-0.4,1.4-0.6,2.1-0.6c0.9,0,1.7,0.3,2.3,0.9c0.6,0.7,0.9,1.6,0.8,2.5
	v4.8c-0.1,0.5,0,1.1,0.2,1.6c0.1,0.2,0.5,0.3,1.2,0.3h0.2v0.9H158v-0.9h0.2c0.7,0,1.1-0.2,1.2-0.3c0.2-0.5,0.3-1.1,0.2-1.6v-4.5
	c0-0.5,0-1.1-0.3-1.6c-0.3-0.3-0.7-0.5-1-0.4c-0.5,0-0.9,0.1-1.3,0.4c-0.5,0.3-0.9,0.7-1.3,1.2v4.9c-0.1,0.5,0,1.1,0.2,1.6
	c0.1,0.2,0.5,0.3,1.2,0.3h0.2v0.9h-6.1v-0.9h0.2c0.7,0,1.1-0.2,1.2-0.3c0.2-0.5,0.3-1.1,0.2-1.6v-5.1c0.1-0.5,0-1.1-0.2-1.6
	c-0.1-0.2-0.5-0.3-1.2-0.3h-0.2v-0.9h4.5L155.7,34.4z"/>
<path class="st2" d="M175.9,43.2h-6.2v-0.9h0.2c0.7,0,1.1-0.2,1.2-0.3c0.2-0.5,0.3-1.1,0.2-1.6v-9c0.1-0.5,0-1.1-0.2-1.6
	c-0.1-0.2-0.5-0.3-1.2-0.3h-0.2v-0.9h6.2v0.9h-0.2c-0.7,0-1.1,0.2-1.2,0.3c-0.2,0.5-0.3,1.1-0.2,1.6v9c-0.1,0.5,0,1.1,0.2,1.6
	c0.1,0.2,0.5,0.3,1.2,0.3h0.2L175.9,43.2z"/>
<path class="st2" d="M182,27.6v12.8c-0.1,0.5,0,1.1,0.2,1.6c0.1,0.2,0.5,0.3,1.2,0.3h0.2v0.9h-6.1v-0.9h0.2c0.7,0,1.1-0.2,1.2-0.3
	c0.2-0.5,0.3-1.1,0.2-1.6v-9.9c0.1-0.5,0-1.1-0.2-1.6c-0.1-0.2-0.5-0.3-1.2-0.3h-0.2v-0.9L182,27.6z"/>
<path class="st2" d="M189.5,27.6v12.8c-0.1,0.5,0,1.1,0.2,1.6c0.1,0.2,0.5,0.3,1.2,0.3h0.2v0.9h-6.1v-0.9h0.2c0.7,0,1.1-0.2,1.2-0.3
	c0.2-0.5,0.3-1.1,0.2-1.6v-9.9c0.1-0.5,0-1.1-0.2-1.6c-0.1-0.2-0.5-0.3-1.2-0.3h-0.2v-0.9L189.5,27.6z"/>
<path class="st2" d="M196.9,32.3v8c-0.1,0.5,0,1.1,0.2,1.6c0.1,0.2,0.5,0.3,1.2,0.3h0.2v0.9h-6.1v-0.9h0.2c0.7,0,1.1-0.2,1.2-0.3
	c0.2-0.5,0.3-1.1,0.2-1.6v-5.1c0.1-0.5,0-1.1-0.2-1.6c-0.1-0.2-0.5-0.3-1.2-0.3h-0.2v-0.9L196.9,32.3z M194,27.6h2.9v2.9H194V27.6z"
	/>
<path class="st2" d="M204.1,34.4c0.4-0.7,0.9-1.3,1.6-1.7c0.6-0.4,1.4-0.6,2.1-0.6c0.9,0,1.7,0.3,2.3,0.9c0.6,0.7,0.9,1.6,0.8,2.5
	v4.8c-0.1,0.5,0,1.1,0.2,1.6c0.1,0.2,0.5,0.3,1.2,0.3h0.2v0.9h-6.1v-0.9h0.2c0.7,0,1.1-0.2,1.2-0.3c0.2-0.5,0.3-1.1,0.2-1.6v-4.5
	c0-0.5,0-1.1-0.3-1.6c-0.3-0.3-0.7-0.5-1-0.4c-0.5,0-0.9,0.1-1.3,0.4c-0.5,0.3-0.9,0.7-1.3,1.2v4.9c-0.1,0.5,0,1.1,0.2,1.6
	c0.1,0.2,0.5,0.3,1.2,0.3h0.2v0.9h-6.1v-0.9h0.2c0.7,0,1.1-0.2,1.2-0.3c0.2-0.5,0.3-1.1,0.2-1.6v-5.1c0.1-0.5,0-1.1-0.2-1.6
	c-0.1-0.2-0.5-0.3-1.2-0.3h-0.2v-0.9h4.5V34.4z"/>
<path class="st2" d="M218.7,43.5c-2.9,0.3-5.4-1.9-5.7-4.7c0-0.3,0-0.6,0-1c-0.1-1.5,0.5-3.1,1.5-4.2c2.4-2,5.9-2,8.3,0
	c1.1,1.1,1.6,2.6,1.5,4.2c0.1,1.5-0.4,3.1-1.5,4.2C221.7,43.1,220.2,43.6,218.7,43.5 M218.7,42.5c0.8,0,1.5-0.4,1.8-1.2
	c0.5-1.1,0.7-2.3,0.6-3.5c0.1-1.2-0.1-2.4-0.6-3.5c-0.5-1-1.6-1.4-2.6-1c-0.4,0.2-0.8,0.6-1,1c-0.5,1.1-0.7,2.3-0.6,3.5
	c-0.1,1.2,0.1,2.4,0.6,3.5C217.2,42.1,217.9,42.5,218.7,42.5"/>
<path class="st2" d="M229.8,32.3v8c-0.1,0.6,0,1.1,0.2,1.7c0.1,0.2,0.5,0.3,1.2,0.3h0.2v0.9h-6.1v-0.9h0.2c0.7,0,1.1-0.2,1.2-0.3
	c0.2-0.5,0.3-1.1,0.2-1.6v-5.2c0.1-0.5,0-1.1-0.2-1.6c-0.1-0.2-0.5-0.3-1.2-0.3h-0.2v-0.9L229.8,32.3z M226.9,27.6h2.9v2.9h-2.9
	V27.6z"/>
<path class="st2" d="M232.7,42.8v-2.8h1.3v0.2c0,0.6,0.1,1.1,0.4,1.6c0.6,0.6,1.5,1,2.4,0.9c0.5,0,0.9-0.2,1.3-0.5
	c0.3-0.3,0.5-0.7,0.5-1.2c0-0.7-0.6-1.3-1.9-1.8l-0.9-0.4c-2.1-0.8-3.1-1.9-3.1-3.3c0-0.9,0.5-1.8,1.2-2.3c1-0.6,2.1-0.9,3.3-0.9
	c1.1,0,2.3,0.2,3.4,0.5v2.6h-1.4V35v-0.5c0-1-0.6-1.5-1.8-1.5c-0.5,0-1,0.2-1.3,0.5c-0.4,0.3-0.6,0.8-0.5,1.2c0,0.4,0.1,0.7,0.4,1
	c0.5,0.4,1.1,0.6,1.7,0.8l0.9,0.3c2,0.8,3,1.8,3,3.1c0,1-0.5,1.9-1.3,2.5c-1,0.7-2.1,1-3.3,1C235.5,43.6,234.1,43.3,232.7,42.8"/>
<path class="st2" d="M71.1,47.2h6.2v0.9h-0.2c-0.7,0-1.1,0.2-1.2,0.3c-0.2,0.5-0.2,1.1-0.2,1.6v6.4c-0.1,1.3,0.2,2.6,0.8,3.8
	c0.6,0.8,1.5,1.2,2.5,1.1c1.1,0.1,2.1-0.3,2.8-1.2c0.7-1.1,1-2.5,0.9-3.8v-6.3c0.1-0.5,0-1.1-0.2-1.6c-0.1-0.2-0.5-0.3-1.2-0.3H81
	v-0.9h4.6v0.9h-0.2c-0.7,0-1.1,0.2-1.2,0.3c-0.2,0.5-0.2,1.1-0.2,1.6v6c0.1,1.7-0.3,3.3-1.3,4.7c-1.1,1.1-2.6,1.6-4.2,1.5
	c-4,0-5.9-2-5.9-6v-6.1c0.1-0.5,0-1.1-0.2-1.6c-0.1-0.2-0.5-0.3-1.2-0.3h-0.2L71.1,47.2z"/>
<path class="st2" d="M91,53.1c0.4-0.7,0.9-1.3,1.6-1.7c0.6-0.4,1.4-0.6,2.1-0.6c0.9,0,1.7,0.3,2.3,0.9c0.6,0.7,0.9,1.6,0.8,2.5v4.8
	c-0.1,0.5,0,1.1,0.2,1.6c0.1,0.2,0.5,0.3,1.2,0.3h0.2v0.9h-6.1V61h0.2c0.7,0,1.1-0.2,1.2-0.3c0.2-0.5,0.3-1.1,0.2-1.6v-4.5
	c0-0.5,0-1.1-0.3-1.6c-0.3-0.3-0.7-0.5-1.1-0.4c-0.5,0-0.9,0.1-1.3,0.4c-0.5,0.3-0.9,0.7-1.3,1.2v4.9c-0.1,0.5,0,1.1,0.2,1.6
	c0.1,0.2,0.5,0.3,1.2,0.3h0.2v0.9h-6.1V61h0.2c0.7,0,1.1-0.2,1.2-0.3c0.2-0.5,0.2-1.1,0.2-1.6v-5.1c0.1-0.5,0-1.1-0.2-1.6
	c-0.1-0.2-0.5-0.3-1.2-0.3h-0.2v-1H91V53.1z"/>
<path class="st2" d="M105.1,51v8c-0.1,0.5,0,1.1,0.2,1.6c0.1,0.2,0.5,0.3,1.2,0.3h0.2v0.9h-6.1V61h0.2c0.7,0,1.1-0.2,1.2-0.3
	c0.2-0.5,0.3-1.1,0.2-1.6v-5.1c0.1-0.5,0-1.1-0.2-1.6c-0.1-0.2-0.5-0.3-1.2-0.3h-0.2v-1H105.1z M102.1,46.2h2.9v2.9h-2.9V46.2z"/>
<path class="st2" d="M112.2,62.1l-3.9-8.1c-0.3-0.6-0.6-1.1-1-1.6c-0.3-0.2-0.7-0.4-1.1-0.3H106v-1h6.1v1H112
	c-0.7,0-1.1,0.2-1.1,0.4c0.1,0.6,0.3,1.1,0.6,1.6l2.2,4.5L116,54c0.3-0.5,0.5-1.1,0.7-1.7c0-0.2-0.4-0.3-1.1-0.3h-0.2v-1h4v1h-0.2
	c-0.4,0-0.7,0.1-1.1,0.3c-0.4,0.5-0.7,1.1-1,1.7l-4,8.1L112.2,62.1z"/>
<path class="st2" d="M128.9,61.5c-1.2,0.4-2.5,0.7-3.8,0.7c-1.6,0.1-3.2-0.5-4.4-1.6c-2.1-2.3-2.2-5.9-0.2-8.3c1-1,2.4-1.6,3.8-1.5
	c3,0,4.6,1.9,4.6,5.6v0.2H122c-0.1,1.1,0.3,2.2,1,3.1c0.8,0.7,1.8,1.1,2.9,1c1,0,2.1-0.3,3-0.7L128.9,61.5z M122.1,55.7h3.9v-0.3
	c0.1-0.9-0.1-1.9-0.4-2.8c-0.2-0.5-0.8-0.9-1.4-0.8c-0.7,0-1.3,0.4-1.6,1C122.3,53.7,122.1,54.7,122.1,55.7"/>
<path class="st2" d="M134.7,54.2v4.9c-0.1,0.5,0,1.1,0.2,1.6c0.1,0.2,0.6,0.3,1.4,0.3h0.2v1h-6.4v-1h0.2c0.7,0,1.1-0.2,1.2-0.3
	c0.2-0.5,0.3-1.1,0.2-1.6v-5.1c0.1-0.5,0-1.1-0.2-1.6c-0.1-0.2-0.5-0.3-1.2-0.3h-0.2v-1h4.5v2.1c0.6-1.4,2-2.3,3.5-2.3
	c0.2,0,0.4,0,0.6,0.1v3.5h-1.4v-0.2c0-0.4-0.1-0.8-0.1-1.2c0-0.1-0.2-0.1-0.5-0.1C135.9,52.8,135.1,53.3,134.7,54.2"/>
<path class="st2" d="M140.1,61.5v-2.8h1.3v0.2c0,0.6,0.1,1.1,0.4,1.6c0.6,0.6,1.5,1,2.4,0.9c0.5,0,0.9-0.2,1.3-0.5
	c0.3-0.3,0.5-0.7,0.5-1.2c0-0.7-0.6-1.3-1.9-1.8l-0.9-0.4c-2.1-0.8-3.1-1.9-3.1-3.3c0-0.9,0.4-1.8,1.2-2.4c1-0.6,2.1-0.9,3.3-0.9
	c1.1,0,2.3,0.2,3.4,0.5v2.6h-1.4v-0.2v-0.5c0-1-0.6-1.5-1.8-1.5c-0.5,0-1,0.2-1.3,0.5c-0.4,0.3-0.6,0.8-0.5,1.2c0,0.4,0.1,0.7,0.4,1
	c0.5,0.4,1.1,0.6,1.6,0.8l0.9,0.3c2,0.8,3,1.8,3,3.1c0,1-0.5,1.9-1.3,2.5c-1,0.7-2.1,1-3.3,1C143,62.3,141.5,62,140.1,61.5"/>
<path class="st2" d="M154.8,51v8c-0.1,0.5,0,1.1,0.2,1.6c0.1,0.2,0.5,0.3,1.2,0.3h0.2v0.9h-6.1V61h0.2c0.7,0,1.1-0.2,1.2-0.3
	c0.2-0.5,0.3-1.1,0.2-1.6v-5.1c0.1-0.5,0-1.1-0.2-1.6c-0.1-0.2-0.5-0.3-1.2-0.3h-0.2v-1H154.8z M151.8,46.2h2.9v2.9h-2.9V46.2z"/>
<path class="st2" d="M163.8,52h-2.4v6.6c-0.1,0.7,0,1.3,0.3,1.9c0.3,0.4,0.7,0.5,1.2,0.5c0.4,0,0.7-0.1,1.1-0.2v1.1
	c-0.6,0.2-1.2,0.3-1.8,0.3c-1,0.1-2-0.2-2.8-0.9c-0.7-0.7-1-1.7-0.9-2.7V52h-1.4v-1h1.4v-1.8l2.9-0.5V51h8v1h-0.2
	c-0.8,0-1.2,0.1-1.2,0.3c0.2,0.6,0.4,1.1,0.6,1.6l2,4.5l2.4-4.5c0.3-0.5,0.6-1.1,0.7-1.6c0-0.2-0.3-0.3-1-0.3h-0.2v-1h3.9v1h-0.2
	c-0.4,0-0.7,0.1-1.1,0.3c-0.4,0.5-0.7,1.1-1,1.7l-6.4,12h-2.6l3.7-4l-3.7-8c-0.3-0.6-0.6-1.1-0.9-1.6c-0.2-0.2-0.4-0.2-0.6-0.2"/>
</svg>
